<svg width="62" height="62" viewBox="0 0 62 62" fill="none" xmlns="http://www.w3.org/2000/svg">
<path d="M58.9155 0.354785L20.3067 4.81017C18.6103 5.00651 17.2222 6.5634 17.2222 8.27184V40.6186C15.582 39.9496 13.8269 39.6074 12.0556 39.6111C5.39917 39.6111 0 44.2353 0 49.9445C0 55.6536 5.39917 60.2778 12.0556 60.2778C18.7119 60.2778 24.1111 55.6519 24.1111 49.9445V18.1505L55.1111 14.5735V37.1759C53.471 36.5063 51.7159 36.1635 49.9444 36.1667C43.2881 36.1667 37.8889 40.7908 37.8889 46.5C37.8889 52.2092 43.2881 56.8333 49.9444 56.8333C56.6008 56.8333 62 52.2075 62 46.5V3.10517C62 1.39673 60.6119 0.160174 58.9155 0.354785Z" fill="white" fill-opacity="0.6"/>
</svg>
