<svg width="64" height="64" viewBox="0 0 64 64" fill="none" xmlns="http://www.w3.org/2000/svg">
<g clip-path="url(#clip0_114_49)">
<path d="M44.2799 20.927C40.9239 17.593 37.4969 14.328 34.1559 10.975C33.7649 10.584 33.2079 9.753 32.6349 9.59C31.6739 9.323 30.4059 9.562 29.4169 9.562C29.3127 9.55905 29.209 9.5773 29.112 9.61563C29.0151 9.65396 28.9269 9.71158 28.8529 9.785L28.8129 9.823C28.8129 9.823 28.8089 9.829 28.8069 9.829C28.7317 9.90606 28.6729 9.9975 28.6339 10.0978C28.5949 10.1982 28.5765 10.3054 28.5799 10.413L28.6669 45.9C23.5609 42.099 13.9679 43.462 12.1599 50.132C11.1229 53.963 11.9749 58.47 15.2239 60.937C18.7169 63.587 23.8249 63.833 27.7529 62.054C31.3629 60.425 34.2049 57.201 34.3459 53.044C34.4359 50.33 34.3459 47.598 34.3459 44.882V23.595C37.9399 24.246 41.6259 27.104 43.6249 29.885C45.5029 32.504 45.7869 36.836 45.3339 39.577C44.8609 42.43 43.1959 44.957 42.6819 47.791C42.5389 48.568 42.8149 49.232 43.6409 49.327C44.7159 49.443 46.0689 47.298 46.5259 46.685C52.7589 38.414 51.4879 28.098 44.2799 20.93" fill="#FDFBFF"/>
<path d="M19.5801 48.548C20.0131 48.151 19.9101 47.328 19.3501 46.721C18.7841 46.108 17.9731 45.938 17.5361 46.341L15.6901 48.043C15.2531 48.443 15.3581 49.264 15.9231 49.875C16.4851 50.486 17.2941 50.658 17.7291 50.257L19.5801 48.548Z" fill="#E7E6E6"/>
<path d="M20.237 7.448C18.149 5.375 16.019 3.345 13.941 1.257C13.696 1.014 13.351 0.498001 12.993 0.399001C12.397 0.232001 11.606 0.379001 10.993 0.379001C10.9279 0.377107 10.8632 0.388451 10.8027 0.412346C10.7422 0.436241 10.6871 0.472187 10.641 0.518001L10.615 0.542001L10.613 0.546001C10.5665 0.593881 10.5301 0.650577 10.5059 0.712747C10.4816 0.774918 10.4701 0.841306 10.472 0.908001C10.488 8.267 10.508 15.622 10.524 22.978C7.35095 20.616 1.38395 21.462 0.259954 25.611C-0.386046 27.995 0.143955 30.8 2.16495 32.334C4.33595 33.982 7.51395 34.135 9.95695 33.029C12.202 32.012 13.967 30.009 14.058 27.423C14.112 25.734 14.058 24.033 14.058 22.344V9.105C16.293 9.51 18.586 11.284 19.83 13.017C20.998 14.646 21.175 17.34 20.891 19.047C20.599 20.823 19.564 22.393 19.244 24.157C19.155 24.641 19.326 25.052 19.838 25.111C20.51 25.186 21.348 23.847 21.634 23.47C25.514 18.324 24.72 11.906 20.238 7.45" fill="#FDFBFF"/>
<path d="M4.87102 24.626C5.14202 24.38 5.07802 23.867 4.72602 23.49C4.37602 23.111 3.87202 23.005 3.60102 23.256L2.45302 24.313C2.18102 24.563 2.24702 25.076 2.59702 25.453C2.94702 25.835 3.45102 25.942 3.72102 25.691L4.87102 24.626Z" fill="#E7E6E6"/>
<path d="M61.0001 4.935C59.5541 3.498 58.0821 2.092 56.6461 0.648999C56.4781 0.481999 56.2401 0.124999 55.9921 0.0569987C55.5801 -0.0630013 55.0321 0.0399987 54.6091 0.0399987C54.517 0.038124 54.4279 0.0726166 54.3611 0.135999L54.3451 0.153999L54.3431 0.157999C54.3108 0.190716 54.2854 0.229653 54.2686 0.272452C54.2517 0.315252 54.2437 0.361024 54.2451 0.406999L54.2831 15.678C52.0871 14.041 47.9591 14.629 47.1821 17.498C46.7351 19.147 47.1021 21.086 48.4971 22.147C49.9991 23.288 52.1971 23.395 53.8891 22.627C55.4421 21.926 56.6631 20.541 56.7251 18.749C56.7641 17.582 56.7251 16.405 56.7251 15.236V6.081C58.2721 6.361 59.8581 7.587 60.7191 8.787C61.5261 9.912 61.6491 11.775 61.4511 12.955C61.2491 14.184 60.5331 15.272 60.3101 16.492C60.2481 16.826 60.3671 17.112 60.7221 17.152C61.1851 17.203 61.7671 16.277 61.9651 16.015C64.6471 12.455 64.1011 8.016 61.0001 4.935Z" fill="#FDFBFF"/>
<path d="M50.37 16.814C50.557 16.647 50.514 16.289 50.271 16.031C50.028 15.764 49.677 15.693 49.491 15.864L48.696 16.6C48.508 16.773 48.554 17.124 48.796 17.387C49.038 17.651 49.389 17.725 49.575 17.554L50.37 16.814Z" fill="#E7E6E6"/>
</g>
<defs>
<clipPath id="clip0_114_49">
<rect width="64" height="64" fill="white"/>
</clipPath>
</defs>
</svg>
